<svg width="21" height="24" viewBox="0 0 21 24" fill="none" xmlns="http://www.w3.org/2000/svg">
<path d="M19.7436 8.5848H19.1439L19.1754 6.3168C19.1717 6.18426 19.122 6.05745 19.0354 5.9592L13.8837 0.1608C13.8423 0.112155 13.7917 0.0727795 13.7349 0.0451178C13.6781 0.0174562 13.6164 0.00209905 13.5536 0L2.77418 0C2.53249 0.00399127 2.30174 0.104281 2.13049 0.279759C1.95925 0.455236 1.86087 0.692212 1.85606 0.9408V8.5848H1.25526C0.922782 8.5848 0.601967 8.7264 0.368646 8.9784C0.131826 9.2304 0 9.5724 0 9.93V16.926C0 17.6676 0.562302 18.27 1.25526 18.27H1.85606V23.058C1.86058 23.3072 1.95916 23.5448 2.13093 23.7206C2.30271 23.8964 2.53422 23.9966 2.77651 24H18.2667C18.7508 24 19.1766 23.5776 19.1766 23.0592V18.2712H19.7447C20.4377 18.2712 21 17.6676 21 16.9248V9.9288C21 9.5736 20.8682 9.2304 20.6325 8.9784C20.5182 8.85464 20.3807 8.75597 20.2283 8.68832C20.076 8.62068 19.9119 8.58546 19.7459 8.5848H19.7436ZM3.44148 1.6536H11.5564V7.146C11.5559 7.26967 11.6019 7.38874 11.6847 7.4784C11.7675 7.5672 11.8795 7.6164 11.9962 7.6164H17.548V8.5848H3.44148V1.6536ZM3.44148 22.3464V18.27H17.548V22.3464H3.44148ZM13.1721 1.824L13.6212 2.3448L16.6311 5.7684L16.7979 5.976H13.7216C13.4883 5.976 13.3424 5.9364 13.2806 5.856C13.2188 5.778 13.1826 5.652 13.1721 5.4804V1.824ZM2.3332 17.0784V9.8784H4.57075C5.4177 9.8784 5.97067 9.9144 6.22732 9.9864C6.62397 10.0944 6.95528 10.3296 7.22243 10.692C7.48842 11.0532 7.62258 11.52 7.62258 12.0936C7.62258 12.5352 7.54558 12.9072 7.39159 13.2096C7.2376 13.5096 7.04161 13.746 6.80479 13.9176C6.58832 14.0801 6.34238 14.1964 6.0815 14.2596C5.74901 14.328 5.26721 14.3628 4.63608 14.3628H3.72729V17.0784H2.3332ZM3.72729 11.0964V13.14H4.49025C5.03972 13.14 5.4072 13.1016 5.59269 13.0272C5.77197 12.9576 5.92555 12.832 6.03185 12.668C6.13814 12.5039 6.19182 12.3098 6.18532 12.1128C6.19383 11.8757 6.11462 11.6442 5.96367 11.4648C5.81801 11.2956 5.62036 11.183 5.4037 11.1456C5.23804 11.1132 4.90323 11.0976 4.40042 11.0976H3.72729V11.0964ZM8.44036 9.8784H10.9882C11.5634 9.8784 12.0008 9.924 12.303 10.0164C12.7078 10.14 13.0543 10.362 13.3436 10.6788C13.6317 10.9968 13.8522 11.3856 14.0027 11.8452C14.1544 12.306 14.229 12.8724 14.229 13.5468C14.229 14.1396 14.159 14.6508 14.0167 15.0792C13.8441 15.6036 13.5967 16.0272 13.2771 16.3512C13.0356 16.5972 12.709 16.7892 12.2972 16.9272C11.9903 17.028 11.5785 17.0784 11.0641 17.0784H8.44036V9.8784ZM9.83445 11.0964V15.8652H10.8751C11.2647 15.8652 11.5459 15.8424 11.7185 15.7968C11.9448 15.7368 12.1327 15.6384 12.2808 15.4968C12.4301 15.3564 12.5526 15.1248 12.646 14.802C12.7405 14.4792 12.7871 14.04 12.7871 13.4832C12.7871 12.9264 12.7405 12.4992 12.6471 12.2016C12.573 11.939 12.4367 11.6995 12.2505 11.5044C12.0704 11.3315 11.847 11.2139 11.6054 11.1648C11.4105 11.1192 11.0291 11.0964 10.4621 11.0964H9.83445ZM15.0993 17.0784V9.8784H19.8322V11.0964H16.4934V12.8004H19.3749V14.0184H16.4934V17.0784H15.0993Z" fill="#0065DD"/>
</svg>
