<svg width="25" height="30" viewBox="0 0 25 30" fill="none" xmlns="http://www.w3.org/2000/svg">
<path d="M12.5 12.5C15.9518 12.5 18.75 9.70178 18.75 6.25C18.75 2.79822 15.9518 0 12.5 0C9.04822 0 6.25 2.79822 6.25 6.25C6.25 9.70178 9.04822 12.5 12.5 12.5Z" fill="white"/>
<path d="M0 22.5C1.23222 24.7455 3.03898 26.6233 5.23535 27.9411C7.43171 29.2589 9.9388 29.9695 12.5 30C15.0612 29.9695 17.5683 29.2589 19.7647 27.9411C21.961 26.6233 23.7678 24.7455 25 22.5C24.9375 17.76 16.645 15 12.5 15C8.3325 15 0.0625 17.76 0 22.5Z" fill="white"/>
</svg>
