<svg width="27" height="20" viewBox="0 0 27 20" fill="none" xmlns="http://www.w3.org/2000/svg">
<path d="M1 10L0.196645 9.59426C0.067785 9.84941 0.067785 10.1506 0.196645 10.4057L1 10ZM26 10L26.8034 10.4057C26.9322 10.1506 26.9322 9.84941 26.8034 9.59426L26 10ZM1 10C1.80335 10.4057 1.80323 10.406 1.80313 10.4062C1.80312 10.4062 1.80303 10.4064 1.803 10.4064C1.80295 10.4065 1.80297 10.4065 1.80306 10.4063C1.80324 10.406 1.80368 10.4051 1.80441 10.4037C1.80585 10.4009 1.80838 10.3959 1.812 10.389C1.81925 10.375 1.83083 10.3529 1.84672 10.3232C1.8785 10.2637 1.92748 10.1738 1.99336 10.0579C2.12519 9.82587 2.32428 9.4902 2.5883 9.08549C3.11745 8.27435 3.90151 7.19492 4.92053 6.11883C6.97435 3.95001 9.87874 1.9 13.5 1.9V0.1C9.16671 0.1 5.82111 2.54999 3.61356 4.88117C2.5019 6.05508 1.65243 7.22565 1.08073 8.10201C0.794324 8.54105 0.576163 8.9085 0.428338 9.16867C0.354391 9.29882 0.297944 9.4023 0.259261 9.47467C0.239916 9.51086 0.225005 9.53929 0.21456 9.5594C0.209338 9.56946 0.205231 9.57744 0.202244 9.58327C0.20075 9.58619 0.199536 9.58857 0.198603 9.5904C0.198137 9.59132 0.19774 9.5921 0.197414 9.59275C0.197251 9.59307 0.197058 9.59345 0.196977 9.59361C0.196802 9.59395 0.196645 9.59426 1 10ZM13.5 1.9C17.1213 1.9 20.0257 3.95001 22.0795 6.11883C23.0985 7.19492 23.8825 8.27435 24.4117 9.08549C24.6757 9.4902 24.8748 9.82587 25.0066 10.0579C25.0725 10.1738 25.1215 10.2637 25.1533 10.3232C25.1692 10.3529 25.1808 10.375 25.188 10.389C25.1916 10.3959 25.1942 10.4009 25.1956 10.4037C25.1963 10.4051 25.1968 10.406 25.1969 10.4063C25.197 10.4065 25.197 10.4065 25.197 10.4064C25.197 10.4064 25.1969 10.4062 25.1969 10.4062C25.1968 10.406 25.1966 10.4057 26 10C26.8034 9.59426 26.8032 9.59395 26.803 9.59361C26.8029 9.59345 26.8027 9.59307 26.8026 9.59275C26.8023 9.5921 26.8019 9.59132 26.8014 9.5904C26.8005 9.58857 26.7992 9.58619 26.7978 9.58327C26.7948 9.57744 26.7907 9.56946 26.7854 9.5594C26.775 9.53929 26.7601 9.51086 26.7407 9.47467C26.7021 9.4023 26.6456 9.29882 26.5717 9.16867C26.4238 8.9085 26.2057 8.54105 25.9193 8.10201C25.3476 7.22565 24.4981 6.05508 23.3864 4.88117C21.1789 2.54999 17.8333 0.1 13.5 0.1V1.9ZM26 10C25.1966 9.59426 25.1968 9.59402 25.1969 9.59381C25.1969 9.59379 25.197 9.59362 25.197 9.59357C25.197 9.59347 25.197 9.59351 25.1969 9.59368C25.1968 9.59403 25.1963 9.59491 25.1956 9.59632C25.1942 9.59914 25.1916 9.60406 25.188 9.61104C25.1808 9.62498 25.1692 9.64709 25.1533 9.67682C25.1215 9.73628 25.0725 9.82616 25.0066 9.94211C24.8748 10.1741 24.6757 10.5098 24.4117 10.9145C23.8825 11.7256 23.0985 12.8051 22.0795 13.8812C20.0257 16.05 17.1213 18.1 13.5 18.1V19.9C17.8333 19.9 21.1789 17.45 23.3864 15.1188C24.4981 13.9449 25.3476 12.7744 25.9193 11.898C26.2057 11.459 26.4238 11.0915 26.5717 10.8313C26.6456 10.7012 26.7021 10.5977 26.7407 10.5253C26.7601 10.4891 26.775 10.4607 26.7854 10.4406C26.7907 10.4305 26.7948 10.4226 26.7978 10.4167C26.7992 10.4138 26.8005 10.4114 26.8014 10.4096C26.8019 10.4087 26.8023 10.4079 26.8026 10.4073C26.8027 10.4069 26.8029 10.4066 26.803 10.4064C26.8032 10.406 26.8034 10.4057 26 10ZM13.5 18.1C9.87874 18.1 6.97435 16.05 4.92053 13.8812C3.90151 12.8051 3.11745 11.7256 2.5883 10.9145C2.32428 10.5098 2.12519 10.1741 1.99336 9.94211C1.92748 9.82616 1.8785 9.73628 1.84672 9.67682C1.83083 9.64709 1.81925 9.62498 1.812 9.61104C1.80838 9.60406 1.80585 9.59914 1.80441 9.59632C1.80368 9.59491 1.80324 9.59403 1.80306 9.59368C1.80297 9.59351 1.80295 9.59347 1.803 9.59357C1.80303 9.59362 1.80312 9.59379 1.80313 9.59381C1.80323 9.59402 1.80335 9.59426 1 10C0.196645 10.4057 0.196802 10.406 0.196977 10.4064C0.197058 10.4066 0.197251 10.4069 0.197414 10.4073C0.19774 10.4079 0.198137 10.4087 0.198603 10.4096C0.199536 10.4114 0.20075 10.4138 0.202244 10.4167C0.205231 10.4226 0.209338 10.4305 0.21456 10.4406C0.225005 10.4607 0.239916 10.4891 0.259261 10.5253C0.297944 10.5977 0.354391 10.7012 0.428338 10.8313C0.576163 11.0915 0.794324 11.459 1.08073 11.898C1.65243 12.7744 2.5019 13.9449 3.61356 15.1188C5.82111 17.45 9.16671 19.9 13.5 19.9V18.1ZM16.0091 10C16.0091 11.3584 14.8943 12.475 13.5 12.475V14.275C15.8713 14.275 17.8091 12.3695 17.8091 10H16.0091ZM13.5 12.475C12.1057 12.475 10.9909 11.3584 10.9909 10H9.19091C9.19091 12.3695 11.1287 14.275 13.5 14.275V12.475ZM10.9909 10C10.9909 8.6416 12.1057 7.525 13.5 7.525V5.725C11.1287 5.725 9.19091 7.63048 9.19091 10H10.9909ZM13.5 7.525C14.8943 7.525 16.0091 8.6416 16.0091 10H17.8091C17.8091 7.63048 15.8713 5.725 13.5 5.725V7.525Z" fill="#1D213F"/>
</svg>
