<svg width="20" height="20" viewBox="0 0 20 20" fill="none" xmlns="http://www.w3.org/2000/svg">
<path d="M10.0028 4.86426C7.16693 4.86426 4.87109 7.16259 4.87109 9.99592C4.87109 12.8318 7.16943 15.1276 10.0028 15.1276C12.8386 15.1276 15.1344 12.8293 15.1344 9.99592C15.1344 7.16009 12.8361 4.86426 10.0028 4.86426ZM10.0028 13.3268C8.16193 13.3268 6.67193 11.8359 6.67193 9.99592C6.67193 8.15592 8.16276 6.66509 10.0028 6.66509C11.8428 6.66509 13.3336 8.15592 13.3336 9.99592C13.3344 11.8359 11.8436 13.3268 10.0028 13.3268Z" fill="#BCC5D6"/>
<path d="M14.1235 0.0628222C12.2835 -0.0230111 7.72602 -0.0188445 5.88436 0.0628222C4.26602 0.138656 2.83852 0.529489 1.68769 1.68032C-0.235644 3.60366 0.0101894 6.19532 0.0101894 9.99616C0.0101894 13.8862 -0.206477 16.4178 1.68769 18.312C3.61852 20.242 6.24769 19.9895 10.0035 19.9895C13.8569 19.9895 15.1869 19.992 16.5494 19.4645C18.4019 18.7453 19.8002 17.0895 19.9369 14.1153C20.0235 12.2745 20.0185 7.71782 19.9369 5.87616C19.7719 2.36532 17.8877 0.236156 14.1235 0.0628222ZM17.036 17.0395C15.7752 18.3003 14.026 18.1878 9.97936 18.1878C5.81269 18.1878 4.14186 18.2495 2.92269 17.027C1.51852 15.6295 1.77269 13.3853 1.77269 9.98282C1.77269 5.37866 1.30019 2.06282 5.92102 1.82616C6.98269 1.78866 7.29519 1.77616 9.96769 1.77616L10.0052 1.80116C14.446 1.80116 17.9302 1.33616 18.1394 5.95616C18.1869 7.01032 18.1977 7.32699 18.1977 9.99533C18.1969 14.1137 18.2752 15.7945 17.036 17.0395Z" fill="#BCC5D6"/>
<path d="M15.3378 5.86098C16.0001 5.86098 16.537 5.3241 16.537 4.66181C16.537 3.99953 16.0001 3.46265 15.3378 3.46265C14.6756 3.46265 14.1387 3.99953 14.1387 4.66181C14.1387 5.3241 14.6756 5.86098 15.3378 5.86098Z" fill="#BCC5D6"/>
</svg>
