<svg width="20" height="19" viewBox="0 0 20 19" fill="none" xmlns="http://www.w3.org/2000/svg">
<path d="M14 4V2.77778C14 2.30628 13.7893 1.8541 13.4142 1.5207C13.0391 1.1873 12.5304 1 12 1H8C7.46957 1 6.96086 1.1873 6.58579 1.5207C6.21071 1.8541 6 2.30628 6 2.77778V4M2.8 5H17.2C18.1941 5 19 5.83147 19 6.85714V16.1429C19 17.1685 18.1941 18 17.2 18H2.8C1.80589 18 1 17.1685 1 16.1429V6.85714C1 5.83147 1.80589 5 2.8 5Z" stroke="#1D213F" strokeWidth="1.5" stroke-linecap="round" stroke-linejoin="round"/>
</svg>
