<svg width="19" height="16" viewBox="0 0 19 16" fill="none" xmlns="http://www.w3.org/2000/svg">
<path d="M0.335633 7.67086L4.71339 9.24884L6.40826 14.52C6.43272 14.5983 6.47675 14.6696 6.53647 14.7275C6.59618 14.7855 6.66973 14.8283 6.75063 14.8522C6.83152 14.8761 6.91726 14.8804 7.00027 14.8647C7.08327 14.8489 7.16099 14.8136 7.22655 14.7619L9.66751 12.8379C9.79196 12.74 9.94633 12.6846 10.1067 12.6803C10.267 12.676 10.4243 12.723 10.5542 12.814L14.956 15.905C15.0258 15.9539 15.107 15.9851 15.1924 15.9958C15.2778 16.0066 15.3647 15.9965 15.445 15.9664C15.5253 15.9364 15.5966 15.8874 15.6524 15.824C15.7081 15.7605 15.7466 15.6845 15.7642 15.603L18.9892 0.600611C19.0081 0.512787 19.0021 0.421679 18.9719 0.336863C18.9418 0.252048 18.8885 0.176658 18.8178 0.118618C18.7471 0.0605779 18.6616 0.0220319 18.5701 0.00703157C18.4787 -0.00796877 18.3848 0.00113062 18.2983 0.0333732L0.330566 6.73731C0.232832 6.77374 0.148868 6.83806 0.0898258 6.92174C0.0307837 7.00541 -0.000542698 7.10448 7.11522e-06 7.20578C0.000556929 7.30708 0.0329569 7.40582 0.0929041 7.48889C0.152851 7.57196 0.237509 7.63543 0.335633 7.67086ZM6.13528 8.41023L14.6938 3.31306C14.7254 3.29501 14.7626 3.28879 14.7986 3.29558C14.8346 3.30237 14.8667 3.32169 14.8889 3.34989C14.9111 3.37808 14.9218 3.41318 14.919 3.44851C14.9162 3.48385 14.9001 3.51695 14.8737 3.54155L7.80987 9.89019C7.56201 10.1134 7.40176 10.4128 7.35639 10.7374L7.11571 12.4611C7.10918 12.51 7.0854 12.5552 7.04841 12.589C7.01141 12.6229 6.96346 12.6433 6.91266 12.6469C6.86187 12.6505 6.81135 12.6371 6.76964 12.6088C6.72793 12.5805 6.6976 12.5392 6.68376 12.4918L5.75906 9.34746C5.70757 9.17293 5.71645 8.98691 5.78437 8.81771C5.85228 8.64852 5.97551 8.50543 6.13528 8.41023Z" fill="#BCC5D6"/>
</svg>
