<svg width="25" height="18" viewBox="0 0 25 18" fill="none" xmlns="http://www.w3.org/2000/svg">
<path d="M24.4849 2.81646C24.3419 2.27388 24.0633 1.77924 23.6768 1.3817C23.2902 0.984168 22.8092 0.69758 22.2816 0.550425C20.3254 0 12.4998 0 12.4998 0C12.4998 0 4.6745 0 2.71829 0.529518C1.66804 0.825839 0.802349 1.7152 0.514958 2.81646C0 4.82798 0 8.9994 0 8.9994C0 8.9994 0 13.1921 0.514958 15.1827C0.657853 15.7255 0.936423 16.2203 1.32297 16.618C1.70951 17.0156 2.19056 17.3023 2.71829 17.4496C4.69523 18 12.5001 18 12.5001 18C12.5001 18 20.3254 18 22.2816 17.4705C22.8093 17.3234 23.2903 17.0369 23.6769 16.6395C24.0635 16.242 24.3422 15.7474 24.4853 15.2049C24.9999 13.1945 24.9999 9.02191 24.9999 9.02191C24.9999 9.02191 25.0206 4.82798 24.4849 2.81646ZM10.0098 12.8532V5.14642L16.517 9.0002L10.0098 12.8532Z" fill="#BCC5D6"/>
</svg>
