<svg width="22" height="16" viewBox="0 0 22 16" fill="none" xmlns="http://www.w3.org/2000/svg">
<path d="M1 8L0.201335 7.58511C0.0662217 7.8452 0.0662217 8.1548 0.201335 8.41489L1 8ZM21 8L21.7987 8.41489C21.9338 8.1548 21.9338 7.8452 21.7987 7.58511L21 8ZM1 8C1.79866 8.41489 1.79853 8.41514 1.79842 8.41537C1.79839 8.41541 1.79829 8.41561 1.79825 8.41569C1.79816 8.41585 1.79813 8.41591 1.79816 8.41586C1.79821 8.41577 1.79848 8.41526 1.79896 8.41434C1.79993 8.41249 1.80177 8.40901 1.80448 8.40395C1.80989 8.39382 1.81876 8.37736 1.83106 8.35498C1.85567 8.31022 1.89396 8.24188 1.94571 8.15333C2.04929 7.97611 2.20634 7.71864 2.41496 7.40772C2.83331 6.78425 3.45321 5.95458 4.25835 5.12797C5.88266 3.46034 8.16442 1.9 11 1.9V0.1C7.47195 0.1 4.7537 2.03966 2.96892 3.87203C2.06952 4.79542 1.3826 5.71575 0.920265 6.40478C0.68855 6.75011 0.511794 7.03952 0.391644 7.24511C0.331535 7.34796 0.285492 7.43001 0.253725 7.48779C0.237839 7.51669 0.225513 7.53953 0.216775 7.55589C0.212406 7.56407 0.208932 7.57063 0.206358 7.57552C0.205071 7.57796 0.204009 7.57999 0.203171 7.58159C0.202753 7.58239 0.20239 7.58308 0.202084 7.58367C0.201931 7.58396 0.201744 7.58432 0.201667 7.58447C0.201494 7.5848 0.201335 7.58511 1 8ZM11 1.9C13.8356 1.9 16.1173 3.46034 17.7416 5.12797C18.5468 5.95458 19.1667 6.78425 19.585 7.40772C19.7937 7.71864 19.9507 7.97611 20.0543 8.15333C20.106 8.24188 20.1443 8.31022 20.1689 8.35498C20.1812 8.37736 20.1901 8.39382 20.1955 8.40395C20.1982 8.40901 20.2001 8.41249 20.201 8.41434C20.2015 8.41526 20.2018 8.41577 20.2018 8.41586C20.2019 8.41591 20.2018 8.41585 20.2018 8.41569C20.2017 8.41561 20.2016 8.41541 20.2016 8.41537C20.2015 8.41514 20.2013 8.41489 21 8C21.7987 7.58511 21.7985 7.5848 21.7983 7.58447C21.7983 7.58432 21.7981 7.58396 21.7979 7.58367C21.7976 7.58308 21.7972 7.58239 21.7968 7.58159C21.796 7.57999 21.7949 7.57796 21.7936 7.57552C21.7911 7.57063 21.7876 7.56407 21.7832 7.55589C21.7745 7.53953 21.7622 7.51669 21.7463 7.48779C21.7145 7.43001 21.6685 7.34796 21.6084 7.24511C21.4882 7.03952 21.3115 6.75011 21.0797 6.40478C20.6174 5.71575 19.9305 4.79542 19.0311 3.87203C17.2463 2.03966 14.5281 0.1 11 0.1V1.9ZM21 8C20.2013 7.58511 20.2015 7.58486 20.2016 7.58463C20.2016 7.58459 20.2017 7.58439 20.2018 7.58431C20.2018 7.58415 20.2019 7.58409 20.2018 7.58414C20.2018 7.58423 20.2015 7.58474 20.201 7.58566C20.2001 7.58751 20.1982 7.59099 20.1955 7.59605C20.1901 7.60618 20.1812 7.62264 20.1689 7.64502C20.1443 7.68978 20.106 7.75812 20.0543 7.84667C19.9507 8.02389 19.7937 8.28136 19.585 8.59228C19.1667 9.21575 18.5468 10.0454 17.7416 10.872C16.1173 12.5397 13.8356 14.1 11 14.1V15.9C14.5281 15.9 17.2463 13.9603 19.0311 12.128C19.9305 11.2046 20.6174 10.2843 21.0797 9.59522C21.3115 9.24989 21.4882 8.96048 21.6084 8.75489C21.6685 8.65204 21.7145 8.56999 21.7463 8.51221C21.7622 8.48331 21.7745 8.46047 21.7832 8.44411C21.7876 8.43593 21.7911 8.42937 21.7936 8.42448C21.7949 8.42204 21.796 8.42001 21.7968 8.41841C21.7972 8.41761 21.7976 8.41692 21.7979 8.41633C21.7981 8.41604 21.7983 8.41568 21.7983 8.41553C21.7985 8.4152 21.7987 8.41489 21 8ZM11 14.1C8.16442 14.1 5.88266 12.5397 4.25835 10.872C3.45321 10.0454 2.83331 9.21575 2.41496 8.59228C2.20634 8.28136 2.04929 8.02389 1.94571 7.84667C1.89396 7.75812 1.85567 7.68978 1.83106 7.64502C1.81876 7.62264 1.80989 7.60618 1.80448 7.59605C1.80177 7.59099 1.79993 7.58751 1.79896 7.58566C1.79848 7.58474 1.79821 7.58423 1.79816 7.58414C1.79813 7.58409 1.79816 7.58415 1.79825 7.58431C1.79829 7.58439 1.79839 7.58459 1.79842 7.58463C1.79853 7.58486 1.79866 7.58511 1 8C0.201335 8.41489 0.201494 8.4152 0.201667 8.41553C0.201744 8.41568 0.201931 8.41604 0.202084 8.41633C0.20239 8.41692 0.202753 8.41761 0.203171 8.41841C0.204009 8.42001 0.205071 8.42204 0.206358 8.42448C0.208932 8.42937 0.212406 8.43593 0.216775 8.44411C0.225513 8.46047 0.237839 8.48331 0.253725 8.51221C0.285492 8.56999 0.331535 8.65204 0.391644 8.75489C0.511794 8.96048 0.68855 9.24989 0.920265 9.59522C1.3826 10.2843 2.06952 11.2046 2.96892 12.128C4.7537 13.9603 7.47195 15.9 11 15.9V14.1ZM12.8273 8C12.8273 8.92058 12.0419 9.725 11 9.725V11.525C12.9706 11.525 14.6273 9.97892 14.6273 8H12.8273ZM11 9.725C9.95809 9.725 9.17273 8.92058 9.17273 8H7.37273C7.37273 9.97892 9.02944 11.525 11 11.525V9.725ZM9.17273 8C9.17273 7.07942 9.95809 6.275 11 6.275V4.475C9.02944 4.475 7.37273 6.02108 7.37273 8H9.17273ZM11 6.275C12.0419 6.275 12.8273 7.07942 12.8273 8H14.6273C14.6273 6.02108 12.9706 4.475 11 4.475V6.275Z" fill="#BCC5D6"/>
</svg>
