<svg width="25" height="24" viewBox="0 0 25 24" fill="none" xmlns="http://www.w3.org/2000/svg">
<path d="M14.7638 0V2.23254C17.7994 2.24921 21.1207 2.20183 24.1572 2.24921C24.2643 2.23091 24.3742 2.2374 24.4783 2.26817C24.5824 2.29894 24.6778 2.35314 24.7568 2.42647C24.8359 2.49979 24.8964 2.59021 24.9337 2.69055C24.9709 2.79089 24.9839 2.89839 24.9714 3.0045C25.0196 8.50119 24.9598 14.3119 25 19.8095C24.9821 20.1604 25.008 20.7902 24.9527 21.1402C24.8821 21.5868 24.6795 21.6727 24.2232 21.7332C23.9679 21.7675 23.5411 21.7631 23.2902 21.7745C20.7975 21.7622 18.3065 21.7648 15.8137 21.7657H14.7647V24L0 21.764V2.23692L14.7638 0Z" fill="#2A5699"/>
<path d="M14.7638 3.06941H24.1384V20.928H14.7638V18.6954H22.1474V17.5796H14.7638V16.1848H22.1474V15.0681H14.7638V13.6733H22.1474V12.5566H14.7638V11.1618H22.1474V10.0451H14.7638V8.65032H22.1474V7.53361H14.7638V6.13882H22.1474V5.02211H14.7638V3.06941Z" fill="white"/>
<path d="M5.86854 8.00029C6.40424 7.96959 6.94797 7.94766 7.48723 7.91959C7.8649 9.80299 8.25149 11.6838 8.66041 13.5593C8.98093 11.6224 9.33627 9.69158 9.68001 7.75818C10.2474 7.73819 10.8144 7.70895 11.3808 7.67046C10.7389 10.3741 10.1764 13.1005 9.47556 15.7883C9.00146 16.0313 8.29167 15.7769 7.72919 15.8164C7.35152 13.9689 6.91136 12.132 6.57298 10.2776C6.24085 12.0855 5.80872 13.8689 5.42838 15.6602C4.88316 15.6321 4.33586 15.5997 3.78647 15.5628C3.31506 13.1066 2.76151 10.6688 2.32135 8.20732C2.80704 8.18539 3.29542 8.16521 3.78112 8.14854C4.07396 9.9258 4.40609 11.6952 4.66144 13.4751C5.06143 11.6504 5.47123 9.82492 5.86854 8.00029Z" fill="white"/>
</svg>
